HIERARCHY
ROOT Hips
{
  OFFSET 55.4898 83.7517 3.86518
  CHANNELS 6 Xposition Yposition Zposition Zrotation Xrotation Yrotation
  JOINT spine
  {
    OFFSET 0 5.95438 0.342407
    CHANNELS 3 Zrotation Xrotation Yrotation
    JOINT spine1
    {
      OFFSET 0 8.85602 0
      CHANNELS 3 Zrotation Xrotation Yrotation
      JOINT spine2
      {
        OFFSET 0 8.48567 0
        CHANNELS 3 Zrotation Xrotation Yrotation
        JOINT Neck
        {
          OFFSET 0 21.7863 1.0387
          CHANNELS 3 Zrotation Xrotation Yrotation
          JOINT Head
          {
            OFFSET 0 6.5822 0
            CHANNELS 3 Zrotation Xrotation Yrotation
            End Site
            {
              OFFSET 0 15.9326 -5.25436
            }
          }
        }
        JOINT RightShoulder
        {
          OFFSET -3.57307 9.16386 -0.497525
          CHANNELS 3 Zrotation Xrotation Yrotation
          JOINT RightArm
          {
            OFFSET 0 12.0192 0
            CHANNELS 3 Zrotation Xrotation Yrotation
            JOINT RightArmRoll
            {
              OFFSET 0 6.06755 0
              CHANNELS 3 Zrotation Xrotation Yrotation
              JOINT RightForeArm
              {
                OFFSET 0 17.6726 0
                CHANNELS 3 Zrotation Xrotation Yrotation
                JOINT RightForeArmRoll
                {
                  OFFSET 0 6.80873 0
                  CHANNELS 3 Zrotation Xrotation Yrotation
                  JOINT RightHand
                  {
                    OFFSET 0 13.6636 0
                    CHANNELS 3 Zrotation Xrotation Yrotation
                    End Site
                    {
                      OFFSET 0 0 0
                    }
                  }
                }
              }
            }
          }
        }
        JOINT LeftShoulder
        {
          OFFSET 3.57307 9.16386 -0.497525
          CHANNELS 3 Zrotation Xrotation Yrotation
          JOINT LeftArm
          {
            OFFSET 0 12.0192 0
            CHANNELS 3 Zrotation Xrotation Yrotation
            JOINT LeftArmRoll
            {
              OFFSET 0 6.06755 0
              CHANNELS 3 Zrotation Xrotation Yrotation
              JOINT LeftForeArm
              {
                OFFSET 0 17.6726 0
                CHANNELS 3 Zrotation Xrotation Yrotation
                JOINT LeftForeArmRoll
                {
                  OFFSET 0 6.80873 0
                  CHANNELS 3 Zrotation Xrotation Yrotation
                  JOINT LeftHand
                  {
                    OFFSET 0 13.6636 0
                    CHANNELS 3 Zrotation Xrotation Yrotation
                    End Site
                    {
                      OFFSET 0 0 0
                    }
                  }
                }
              }
            }
          }
        }
      }
    }
  }
  JOINT RightUpLeg
  {
    OFFSET -5.27774 -0.967797 -0.811858
    CHANNELS 3 Zrotation Xrotation Yrotation
    JOINT RightUpLegRoll
    {
      OFFSET 0 16.0214 0
      CHANNELS 3 Zrotation Xrotation Yrotation
      JOINT RightLeg
      {
        OFFSET 0 -19.8401 0
        CHANNELS 3 Zrotation Xrotation Yrotation
        JOINT RightLegRoll
        {
          OFFSET 0 19.905 0
          CHANNELS 3 Zrotation Xrotation Yrotation
          JOINT RightFoot
          {
            OFFSET 0 16.5675 0
            CHANNELS 3 Zrotation Xrotation Yrotation
            JOINT RightToeBase
            {
              OFFSET 0 13.8496 0
              CHANNELS 3 Zrotation Xrotation Yrotation
              End Site
              {
                OFFSET 0.00587034 6.70727 -0.773117
              }
            }
          }
        }
      }
    }
  }
  JOINT LeftUpLeg
  {
    OFFSET 5.27774 -0.967797 -0.811858
    CHANNELS 3 Zrotation Xrotation Yrotation
    JOINT LeftUpLegRoll
    {
      OFFSET 0 16.0215 0
      CHANNELS 3 Zrotation Xrotation Yrotation
      JOINT LeftLeg
      {
        OFFSET 0 19.84 0
        CHANNELS 3 Zrotation Xrotation Yrotation
        JOINT LeftLegRoll
        {
          OFFSET 0 20.089 0
          CHANNELS 3 Zrotation Xrotation Yrotation
          JOINT LeftFoot
          {
            OFFSET 0 16.3835 0
            CHANNELS 3 Zrotation Xrotation Yrotation
            JOINT LeftToeBase
            {
              OFFSET 0 13.8496 0
              CHANNELS 3 Zrotation Xrotation Yrotation
              End Site
              {
                OFFSET -0.0263083 6.70727 -0.773117
              }
            }
          }
        }
      }
    }
  }
}
MOTION
Frames: 12
Frame Time: 0.00208333
52.0496 84.0358 5.11038 2.06891 -9.30389 0.215029 -0.108773 0.264696 0.0915018 -0.219408 4.53083 0.195794 -0.222046 6.1759 0.19795 -4.67525 13.4585 -2.16465 7.6583 5.78021 -3.5456 71.5197 -1.2707 -2.02369 111.244 19.2099 -12.3959 -7.95139e-015 -3.18055e-015 -1.59028e-015 -3.63462 -0.0276287 -1.99253 -2.97522e-006 -1.442e-006 -3.01161 8.03008 -4.95139 0.697633 -64.8992 -1.53297 1.50502 -119.727 18.0464 19.1355 -7.15625e-015 3.18055e-015 -1.59028e-015 3.63821 -0.0253532 1.99247 -5.67223e-006 6.47088e-007 3.0116 -8.0301 -4.95136 -0.697621 176.602 -0.954388 5.4213 180 7.0154e-015 178.891 176.24 14.0301 -179.952 3.03195e-006 -6.59374e-007 0.217556 -20.67 70.3254 21.7001 8.14797 25.232 -3.49263 177.052 -3.83622 1.75162 4.54188e-006 -4.6773e-006 -1.18094 -1.68702 -11.4874 0.174443 1.27419e-006 4.57032e-006 -0.189944 19.6769 69.2837 -20.6825 -8.13233 25.2329 3.48596 
52.0532 84.0313 5.10093 2.06528 -9.27276 0.221717 -0.108073 0.265822 0.0915005 -0.218006 4.53325 0.195692 -0.220641 6.17832 0.197806 -4.68263 13.4176 -2.16833 7.68373 5.77726 -3.54923 71.516 -1.27982 -2.02774 111.258 19.2272 -12.4153 8.34896e-015 6.36111e-015 -1.59028e-015 -3.63462 -0.0276287 -1.99253 -2.97522e-006 -1.442e-006 -3.01161 8.03008 -4.95139 0.697633 -64.8437 -1.51788 1.491 -119.786 18.0398 19.1913 -1.11319e-014 -3.18055e-015 -4.77083e-015 3.63821 -0.0253532 1.99247 -5.67223e-006 6.47088e-007 3.0116 -8.0301 -4.95136 -0.697621 176.605 -0.916466 5.41682 180 7.0154e-015 178.891 176.238 14.034 -179.951 3.03195e-006 -6.59374e-007 0.217556 -20.6735 70.329 21.7039 8.14797 25.232 -3.49263 177.055 -3.79466 1.75312 4.54188e-006 -4.6773e-006 -1.18046 -1.68954 -11.4936 0.174789 1.27419e-006 4.57032e-006 -0.189944 19.6728 69.2793 -20.6781 -8.13233 25.2329 3.48596 
52.0355 84.0345 5.08411 2.0618 -9.24184 0.229052 -0.107446 0.267005 0.0914997 -0.216751 4.53578 0.195602 -0.219382 6.18086 0.197679 -4.68897 13.3757 -2.17237 7.70908 5.77536 -3.55291 71.5131 -1.29003 -2.0324 111.273 19.2454 -12.4346 8.74653e-015 0 3.18055e-015 -3.63462 -0.0276287 -1.99253 -2.97522e-006 -1.442e-006 -3.01161 8.03008 -4.95139 0.697633 -64.7848 -1.50149 1.47589 -119.849 18.032 19.25 3.97569e-015 -3.18055e-015 -1.59028e-015 3.63821 -0.0253532 1.99247 -5.67223e-006 6.47088e-007 3.0116 -8.0301 -4.95136 -0.697621 176.607 -0.878674 5.41263 180 7.0154e-015 178.891 176.236 14.0382 -179.95 3.03195e-006 -6.59374e-007 0.217556 -20.6771 70.3328 21.7077 8.14797 25.232 -3.49263 177.058 -3.75327 1.7546 4.54188e-006 -4.6773e-006 -1.17998 -1.69212 -11.4998 0.175157 1.27419e-006 4.57032e-006 -0.189944 19.6684 69.2746 -20.6733 -8.13233 25.2329 3.48596 
52.0462 84.0355 5.07616 2.05842 -9.21107 0.236838 -0.106871 0.268227 0.0914991 -0.2156 4.53839 0.19552 -0.218227 6.18346 0.197562 -4.6946 13.3332 -2.17666 7.73437 5.77418 -3.55665 71.5109 -1.30099 -2.03749 111.287 19.2642 -12.4541 -5.96354e-015 -9.54166e-015 -3.18055e-015 -3.63462 -0.0276287 -1.99253 -2.97522e-006 -1.442e-006 -3.01161 8.03008 -4.95139 0.697633 -64.7234 -1.4842 1.46004 -119.914 18.0232 19.3107 -1.27222e-014 -6.36111e-015 -6.36111e-015 3.63821 -0.0253532 1.99247 -5.67223e-006 6.47088e-007 3.0116 -8.0301 -4.95136 -0.697621 176.609 -0.840974 5.40865 180 7.0154e-015 178.891 176.234 14.0426 -179.949 3.03195e-006 -6.59374e-007 0.217556 -20.6808 70.3366 21.7117 8.14797 25.232 -3.49263 177.061 -3.712 1.75607 4.54188e-006 -4.6773e-006 -1.17952 -1.69474 -11.5059 0.175542 1.27419e-006 4.57032e-006 -0.189944 19.6637 69.2697 -20.6684 -8.13233 25.2329 3.48596 
52.0578 84.0369 5.08297 2.0551 -9.18038 0.244883 -0.106325 0.269471 0.0914988 -0.214507 4.54104 0.195443 -0.217131 6.18611 0.197452 -4.69981 13.2904 -2.18111 7.75962 5.77342 -3.56041 71.5091 -1.31239 -2.04282 111.301 19.2834 -12.4735 -3.26007e-014 -3.18055e-015 -7.95139e-015 -3.63462 -0.0276287 -1.99253 -2.97522e-006 -1.442e-006 -3.01161 8.03008 -4.95139 0.697633 -64.6605 -1.46638 1.44376 -119.981 18.014 19.3726 3.18055e-015 -6.36111e-015 -0 3.63821 -0.0253532 1.99247 -5.67223e-006 6.47088e-007 3.0116 -8.0301 -4.95136 -0.697621 176.611 -0.803326 5.40479 180 7.0154e-015 178.891 176.231 14.047 -179.948 3.03195e-006 -6.59374e-007 0.217556 -20.6845 70.3404 21.7157 8.14797 25.232 -3.49263 177.063 -3.6708 1.75753 4.54188e-006 -4.6773e-006 -1.17906 -1.69739 -11.5119 0.175935 1.27419e-006 4.57032e-006 -0.189944 19.659 69.2647 -20.6633 -8.13233 25.2329 3.48596 
52.0482 84.0345 5.08363 2.05177 -9.14971 0.252991 -0.105786 0.270721 0.0914985 -0.213429 4.5437 0.195367 -0.216049 6.18877 0.197344 -4.70493 13.2475 -2.18558 7.78487 5.77276 -3.56418 71.5073 -1.32389 -2.04822 111.315 19.3026 -12.4929 7.15625e-015 -6.36111e-015 -0 -3.63462 -0.0276287 -1.99253 -2.97522e-006 -1.442e-006 -3.01161 8.03008 -4.95139 0.697633 -64.5973 -1.44844 1.42736 -120.047 18.0046 19.4348 8.82781e-032 -1.59028e-015 3.18055e-015 3.63821 -0.0253532 1.99247 -5.67223e-006 6.47088e-007 3.0116 -8.0301 -4.95136 -0.697621 176.614 -0.765691 5.40096 180 7.01539e-015 178.891 176.229 14.0515 -179.947 3.03195e-006 -6.59374e-007 0.217556 -20.6883 70.3443 21.7197 8.14797 25.232 -3.49263 177.066 -3.62961 1.75899 4.54188e-006 -4.6773e-006 -1.1786 -1.70005 -11.518 0.176331 1.27419e-006 4.57032e-006 -0.189944 19.6542 69.2596 -20.6582 -8.13233 25.2329 3.48596 
52.0428 84.0308 5.06173 2.04841 -9.119 0.260968 -0.105233 0.27196 0.0914981 -0.212321 4.54634 0.195289 -0.214939 6.19141 0.197232 -4.71026 13.2047 -2.18999 7.81013 5.77189 -3.56793 71.5053 -1.33518 -2.05349 111.329 19.3217 -12.5124 -1.98785e-015 0 -4.77083e-015 -3.63462 -0.0276287 -1.99253 -2.97522e-006 -1.442e-006 -3.01161 8.03008 -4.95139 0.697633 -64.5348 -1.43076 1.41119 -120.113 17.9954 19.4964 3.97569e-015 -1.59028e-015 -0 3.63821 -0.0253532 1.99247 -5.67223e-006 6.47088e-007 3.0116 -8.0301 -4.95136 -0.697621 176.616 -0.728029 5.39708 180 7.01539e-015 178.891 176.226 14.0559 -179.946 3.03195e-006 -6.59374e-007 0.217556 -20.692 70.3481 21.7237 8.14797 25.232 -3.49263 177.069 -3.58839 1.76046 4.54188e-006 -4.6773e-006 -1.17813 -1.70269 -11.5241 0.176722 1.27419e-006 4.57032e-006 -0.189944 19.6495 69.2546 -20.6532 -8.13233 25.2329 3.48596 
52.0492 84.0344 5.05265 2.04497 -9.08818 0.268621 -0.104643 0.273171 0.0914974 -0.21114 4.54892 0.195205 -0.213754 6.19399 0.197112 -4.71612 13.1624 -2.19421 7.83544 5.7705 -3.57165 71.5029 -1.34593 -2.05846 111.343 19.3403 -12.5318 5.96354e-015 -3.18055e-015 3.18055e-015 -3.63462 -0.0276287 -1.99253 -2.97522e-006 -1.442e-006 -3.01161 8.03008 -4.95139 0.697633 -64.4741 -1.41372 1.39555 -120.178 17.9868 19.5565 -5.56597e-015 -3.18055e-015 -6.36111e-015 3.63821 -0.0253532 1.99247 -5.67223e-006 6.47088e-007 3.0116 -8.0301 -4.95136 -0.697621 176.618 -0.690301 5.39305 180 7.01539e-015 178.891 176.224 14.0602 -179.946 3.03195e-006 -6.59374e-007 0.217556 -20.6957 70.3519 21.7276 8.14797 25.232 -3.49263 177.071 -3.54709 1.76193 4.54188e-006 -4.6773e-006 -1.17767 -1.7053 -11.5302 0.177102 1.27419e-006 4.57032e-006 -0.189944 19.645 69.2498 -20.6483 -8.13233 25.2329 3.48596 
52.0657 84.0346 5.06078 2.04139 -9.0572 0.275754 -0.103994 0.274337 0.0914965 -0.209842 4.55142 0.195111 -0.212451 6.19649 0.19698 -4.72282 13.1209 -2.19814 7.86081 5.76829 -3.57532 71.4998 -1.35581 -2.06293 111.357 19.3582 -12.5512 -2.22639e-014 -6.36111e-015 -9.54166e-015 -3.63462 -0.0276287 -1.99253 -2.97522e-006 -1.442e-006 -3.01161 8.03008 -4.95139 0.697633 -64.4161 -1.39772 1.38077 -120.239 17.9793 19.6143 7.95139e-016 -6.36111e-015 3.18055e-015 3.63821 -0.0253532 1.99247 -5.67223e-006 6.47088e-007 3.0116 -8.0301 -4.95136 -0.697621 176.621 -0.652467 5.38879 180 7.01539e-015 178.891 176.222 14.0643 -179.945 3.03195e-006 -6.59374e-007 0.217556 -20.6993 70.3556 21.7315 8.14797 25.232 -3.49263 177.074 -3.50565 1.76342 4.54188e-006 -4.6773e-006 -1.17719 -1.70786 -11.5363 0.177464 1.27419e-006 4.57032e-006 -0.189944 19.6406 69.2452 -20.6437 -8.13233 25.2329 3.48596 
52.059 84.0303 5.05845 2.03764 -9.02599 0.282173 -0.103265 0.27544 0.091495 -0.208381 4.5538 0.195004 -0.210986 6.19887 0.19683 -4.73065 13.0802 -2.20167 7.88627 5.76493 -3.57892 71.4958 -1.3645 -2.06674 111.372 19.3752 -12.5706 9.54166e-015 9.54166e-015 4.77083e-015 -3.63462 -0.0276287 -1.99253 -2.97522e-006 -1.442e-006 -3.01161 8.03008 -4.95139 0.697633 -64.3621 -1.38314 1.36719 -120.297 17.9731 19.6689 -1.27222e-014 -4.77083e-015 -0 3.63821 -0.0253532 1.99247 -5.67223e-006 6.47088e-007 3.0116 -8.0301 -4.95136 -0.697621 176.623 -0.614487 5.38422 180 7.01539e-015 178.891 176.22 14.0682 -179.944 3.03195e-006 -6.59374e-007 0.217556 -20.7027 70.3592 21.7352 8.14797 25.232 -3.49263 177.077 -3.46401 1.76494 4.54188e-006 -4.6773e-006 -1.1767 -1.71036 -11.5426 0.1778 1.27419e-006 4.57032e-006 -0.189944 19.6366 69.2409 -20.6394 -8.13233 25.2329 3.48596 
52.0642 84.0331 5.055 2.03367 -8.9945 0.287686 -0.102433 0.276465 0.0914929 -0.206714 4.55604 0.19488 -0.209315 6.2011 0.196658 -4.73995 13.0408 -2.20468 7.91184 5.76012 -3.58242 71.4905 -1.37168 -2.0697 111.387 19.3909 -12.59 7.15625e-015 3.18055e-015 -0 -3.63462 -0.0276287 -1.99253 -2.97522e-006 -1.442e-006 -3.01161 8.03008 -4.95139 0.697633 -64.3129 -1.37038 1.35511 -120.35 17.9686 19.7193 1.59028e-015 -3.18055e-015 -0 3.63821 -0.0253532 1.99247 -5.67223e-006 6.47088e-007 3.0116 -8.0301 -4.95136 -0.697621 176.627 -0.576322 5.37923 180 7.01539e-015 178.891 176.218 14.0717 -179.943 3.03195e-006 -6.59374e-007 0.217556 -20.7061 70.3627 21.7388 8.14797 25.232 -3.49263 177.08 -3.42213 1.76648 4.54188e-006 -4.6773e-006 -1.1762 -1.71277 -11.5489 0.178105 1.27419e-006 4.57032e-006 -0.189944 19.633 69.2371 -20.6355 -8.13233 25.2329 3.48596 
52.0762 84.0353 5.04228 2.02944 -8.96265 0.292097 -0.101476 0.277394 0.09149 -0.204797 4.55809 0.194735 -0.207393 6.20316 0.196459 -4.751 13.0029 -2.20708 7.93755 5.75355 -3.58581 71.4837 -1.37702 -2.07162 111.403 19.4051 -12.6093 4.37326e-015 0 1.59028e-015 -3.63462 -0.0276287 -1.99253 -2.97522e-006 -1.442e-006 -3.01161 8.03008 -4.95139 0.697633 -64.2698 -1.35982 1.34486 -120.397 17.9663 19.7649 -2.54444e-014 7.95139e-015 -3.18055e-015 3.63821 -0.0253532 1.99247 -5.67223e-006 6.47088e-007 3.0116 -8.0301 -4.95136 -0.697621 176.631 -0.537933 5.37376 180 7.01539e-015 178.891 176.217 14.0748 -179.943 3.03195e-006 -6.59374e-007 0.217556 -20.7093 70.366 21.7422 8.14797 25.232 -3.49263 177.083 -3.37996 1.76805 4.54188e-006 -4.6773e-006 -1.17568 -1.71507 -11.5554 0.178371 1.27419e-006 4.57032e-006 -0.189944 19.6299 69.2338 -20.6322 -8.13233 25.2329 3.48596 
